<svg xmlns="http://www.w3.org/2000/svg" viewBox="0 0 1172.96 800.7"><defs><style>.cls-1{fill:#8e1c1c;}.cls-2{fill:none;stroke:#828282;stroke-miterlimit:10;stroke-width:4.15px;}.cls-3{fill:#951b1e;}.cls-4{fill:#828282;}</style></defs><title>banAsset 1</title><g id="Layer_2" data-name="Layer 2"><g id="Layer_2-2" data-name="Layer 2"><path class="cls-1" d="M1079.46,140.4c-12.52-15.8-25.6-31.16-38.41-46.75-3.06-3.72-6.1-3.62-9.83-.89C1022.69,99,1014,105,1005.7,110.87c-13.89-11.05-27.23-21.52-40.31-32.29-1.31-1.07-1.9-4.16-1.46-6,1.84-7.56,3.9-15.1,6.45-22.45,2-5.73.56-9.31-4.54-12.48-18-11.17-37.36-19-57.24-25.81-4.72-1.62-7.51,0-9.31,4.63C896,25,892.19,33.43,888.8,42c-1.15,2.89-2.6,3.75-5.83,3.36q-23.21-2.74-46.48-4.85c-3.34-.3-4.92-1.32-5.58-4.73-1.81-9.42-4-18.76-6-28.13-1.51-6.92-3-8.33-9.79-7.33-20.34,3-40.63,6.38-61,9.41-6,.89-7.52,4.05-6.61,9.61,1.55,9.46,2.65,19,4.19,28.47.57,3.51-.12,5.25-3.8,6.6Q726.56,62.22,705.54,71c-3.92,1.64-6.31,1.65-9.21-1.7-6-7-12.45-13.51-18.68-20.27-2.66-2.88-5.46-3.94-8.89-1.27Q645.38,65.93,622,84.12c-4.19,3.25-4,6.63-1,10.81,5.58,7.8,10.65,16,16.14,23.82,1.86,2.65,2.16,4.51.11,7.37C629,137.46,621,148.94,613.33,160.59c-2.08,3.15-3.94,3.63-7.35,2.64-9.58-2.81-19.35-5-28.89-7.93-5.44-1.69-8-.32-9.72,5.11-5.51,17.53-11.3,35-17.18,52.38-1.26,3.71-.86,5.74,3,7.53,9,4.23,17.76,9.15,26.82,13.36,4.28,2,5.82,4.09,4.81,9.12-1.73,8.53-2.35,17.27-3.44,25.93C583.8,260,585,251,587.21,242.36c1.36-5.38.46-8.13-4.79-10.68-9.64-4.69-18.81-10.35-28.37-15.72L574,161.78c2.11.48,4,.82,5.9,1.35,9.22,2.62,18.52,5,27.61,8,5.08,1.68,7.79.49,10.79-4q12.47-18.67,26.1-36.54c5.69-7.42,6.13-7.19,1.06-14.88C640,107.47,634.55,99.17,628.52,90c13.9-10.47,27.21-20.63,40.76-30.46,1.13-.81,4.57-.09,5.75,1.09,6.34,6.38,12.4,13,18.34,19.78,3.24,3.67,6.27,4.22,11,2.3,17.57-7.11,35.31-13.82,53.13-20.28,4.68-1.7,6.28-4,5.53-8.85-1.48-9.47-2.47-19-3.92-28.5-.62-4,.59-5.81,4.68-6.38q22.86-3.16,45.65-6.77c4.23-.68,5.57.92,6.29,4.82,1.64,8.84,4,17.53,5.53,26.39,1,5.83,3.81,7.77,9.58,8.26,18.5,1.58,37,3.42,55.37,6,6,.84,8.84-.69,10.89-6.08,3.54-9.28,7.53-18.39,11.95-29.06,16.4,7.72,32.28,15.06,48,22.79,1.25.62,2,4.08,1.6,5.88-1.87,7.76-4,15.47-6.57,23-1.67,5-.4,8,3.77,11.16,14.39,11.08,28.61,22.39,42.46,34.12,4.36,3.7,7.2,4.18,11.77.58,8.25-6.49,17-12.32,26.15-18.85,13.25,15.52,26.11,30.59,39.15,45.85l-15.62,13.83c-11.58,10.25-11.55,10.24-4.53,23.61,5.8,11,11.52,22.12,17.28,33.19-4.27-13.52-9.48-26.63-15-39.61-1.37-3.24-1.46-5.3,1.58-7.62,6.34-4.85,12.41-10,18.54-15.16C1084.74,149.06,1085.31,147.78,1079.46,140.4Z"/><path class="cls-1" d="M876,128.36C783.9,96,687.79,151.35,671,246.23a128.76,128.76,0,0,0,.72,47.38c1.1-12.5,1.37-25.75,3.55-38.68,8.76-52,36.35-91.21,84.27-113.55,74-34.52,157.85-4.3,200,62.34,9,14.23,15.45,30.06,23.08,45.14l.66,0c-3.32-10.57-5.59-21.63-10.15-31.64C953.44,173.94,920.89,144.13,876,128.36Z"/><path class="cls-1" d="M927.56,126.08c-66.77-45.15-156.91-43.56-218.57,7-18.5,15.19-33.1,33.33-42,55.83,3-4.19,5.9-8.48,9.07-12.54,3.32-4.25,6.8-8.38,10.4-12.39,41.88-46.75,94.35-68.61,156.49-60.49,73.61,9.63,124.17,51.63,153.76,119.3,3.43,7.84,6.52,15.82,9.77,23.73l1.87-.62c-3.64-11.95-6.31-24.31-11.08-35.8C982.7,175.09,959,147.36,927.56,126.08Z"/><path class="cls-2" d="M41.89,799.05,2.08,768.67V394.07L147.94,371l41.32,23.78L49.05,421.93,1.63,393.6M53,605V715.73L153.9,703.09l35.38,20.58M53,550.29l87.89-11.7,35.66,22.65"/><path class="cls-2" d="M304.61,645.1l-35.09-28.93L232.18,499.84m-5.6,157.4-38-31.7V414.35L213.92,410l38.71,24,13,103.22V402.12l21.68-4.65,43.23,24.94"/><path class="cls-2" d="M424.09,624.76c-63,15.26-86.58-35-86.58-35A54.36,54.36,0,0,1,332,566V445.56a56.8,56.8,0,0,1,5.48-25.08,62.71,62.71,0,0,1,14.42-19.39A76.75,76.75,0,0,1,372,388a80.64,80.64,0,0,1,22.46-6.54,71.61,71.61,0,0,1,22.45.51A55.76,55.76,0,0,1,437,389.68c6,3.8,28.09,17.88,27.55,51.19m-74.46,44.9,43.13-6.67,34.7,21"/><path class="cls-2" d="M505,612.69,470.58,587V369.12l24.76-3.1L532,389.78"/><path class="cls-2" d="M643.89,589.36l-31-18.23L569.49,460.37M611,433.57V347.1l25.43-3.73L670.3,367M566.12,601.9,534,575.72V359.34l22.07-3.63,36.7,23.48"/><path class="cls-2" d="M703.46,524.59l61.26-8.39,27.61,20.24M710.6,429l46.23-7.59,28,21.23M704.46,578.76,672.52,557V335.07l86.76-13.92,34,25.46"/><path class="cls-2" d="M824,559.79l-29.87-25.36L792.93,317l89.8-14.64,32.45,25.2m-77,173.31,48.18-7.54,27,24.79M841,407.73l37.48-5.68,25.9,21.57"/><path class="cls-2" d="M942.73,540.93l-28.37-25.62V296.44l55.35-7.9c40.5-5.78,70.63,22.57,70.63,66.47m-19.66,172.86-30.32-19.66-27.44-86.43m-12.8-17.21,19-2.48q8.87-1.17,14.12-3.95a21.28,21.28,0,0,0,8.05-7.08,26.49,26.49,0,0,0,3.77-10.17,81.65,81.65,0,0,0,1-13.45,77.08,77.08,0,0,0-1-13.2A19,19,0,0,0,991,345a15.45,15.45,0,0,0-8.71-4.89q-5.58-1.23-14.78,0l-17.4,2.28Z"/><path class="cls-2" d="M1144.73,349.68l-27-16,.24-12.93m-20.31,153.84c7.58,2.25,12.49-1,15.51-4.87a20.1,20.1,0,0,0,4.15-12.49l0-47.54a20.76,20.76,0,0,0-2.58-8.73,12.66,12.66,0,0,0-5.45-4.8,60.25,60.25,0,0,0-9.25-3.26l-11.84,5.91c-19.67-5.33-32.59-21.48-37.14-30.11s-6.83-20-6.83-34a89.89,89.89,0,0,1,3.34-24.48,68,68,0,0,1,9.86-21.09,59,59,0,0,1,39.88-24.29c7.68-1.22,14.55-.23,21.07,1.06,11.6,2.28,41.91,13.75,48.46,50.21m-56.93,197c-73.33,1.23-68.41-76.6-68.41-76.6l25-2.66,31.15,22.45"/><line class="cls-2" x1="187.95" y1="413.07" x2="235.19" y2="443.46"/><line class="cls-2" x1="264.94" y1="401.52" x2="312.19" y2="431.91"/><line class="cls-2" x1="470.69" y1="371.55" x2="517.93" y2="401.94"/><line class="cls-2" x1="533.44" y1="359.94" x2="580.68" y2="390.33"/><line class="cls-2" x1="610.68" y1="347.11" x2="652.2" y2="378.2"/><line class="cls-2" x1="672.17" y1="336.71" x2="719.41" y2="367.1"/><line class="cls-2" x1="793.81" y1="318.09" x2="830.18" y2="346.27"/><line class="cls-2" x1="913.67" y1="297.2" x2="952" y2="324.95"/><line class="cls-2" x1="1042.24" y1="438.52" x2="1080.57" y2="466.27"/><line class="cls-2" x1="381.81" y1="485.63" x2="426.04" y2="515.02"/><line class="cls-2" x1="368.56" y1="502.34" x2="415.8" y2="532.73"/><path class="cls-2" d="M416,529.38v42.45c0,11.32-9.21,20.72-20.52,20.43a35.18,35.18,0,0,1-9.26-1.6"/><line class="cls-2" x1="439.76" y1="465.39" x2="398.97" y2="440.5"/><path class="cls-1" d="M40.63,416.82,190.51,393v51.76L90.92,460.59V573.27l86.77-13.78v51.76L90.92,625V737.71l99.59-15.81v55L40.63,800.7Z"/><path class="cls-1" d="M225.19,437.64,254.53,433l46.11,126.11.6-.1V425.56l30.53-4.85V642.16L303,646.73,256.33,521l-.6.09V654.24l-30.54,4.85Z"/><path class="cls-1" d="M366.8,467.4a63.84,63.84,0,0,1,4.49-24.35,61.18,61.18,0,0,1,11.83-18.83,63.13,63.13,0,0,1,16.46-12.72A58.45,58.45,0,0,1,418,405.15a49.55,49.55,0,0,1,18.41.5,41.67,41.67,0,0,1,16.47,7.49,39.29,39.29,0,0,1,11.82,15.07q4.5,9.56,4.49,22.93v11.19l-30.53,4.85V456q0-11.5-6.14-16T418,436.87a25.17,25.17,0,0,0-14.52,7.75q-6.15,6.42-6.14,17.93v117q0,11.5,6.14,16T418,598.61a25.17,25.17,0,0,0,14.52-7.75q6.14-6.42,6.14-17.93V531.26l-24.26,3.85v-28l54.79-8.71v69.67a63.29,63.29,0,0,1-4.49,24.51,61.56,61.56,0,0,1-11.82,18.67A63.16,63.16,0,0,1,436.41,624,58.71,58.71,0,0,1,418,630.33a49.81,49.81,0,0,1-18.42-.49,41.59,41.59,0,0,1-16.46-7.5,39.59,39.59,0,0,1-11.83-14.91q-4.49-9.39-4.49-23.08Z"/><path class="cls-1" d="M503.55,393l30.54-4.85V609.59l-30.54,4.85Z"/><path class="cls-1" d="M564.89,382.15l29.34-4.67,46.11,126.11.6-.09V370.07l30.53-4.85V586.66l-28.74,4.57L596,465.53l-.6.1V598.74l-30.54,4.85Z"/><path class="cls-1" d="M702.76,359.37l91-14.46v29.86l-60.47,9.6v65L786,441v29.86l-52.69,8.37v65l60.47-9.61v31.73l-91,14.46Z"/><path class="cls-1" d="M822.81,340.3l91-14.46V355.7l-60.48,9.6v65l52.7-8.37V451.8l-52.7,8.37v65l60.48-9.6v31.72l-91,14.46Z"/><path class="cls-1" d="M941.49,321.23l49.1-7.8q53.89-8.56,53.89,56.44,0,19.29-5.84,34.05t-20.51,25.5l32.94,95.85-32.34,5.14-28.44-90L972,443.27v94.56l-30.54,4.85Zm30.54,94,17.36-2.76q8.08-1.27,12.88-4.37a21.24,21.24,0,0,0,7.33-7.85A33.44,33.44,0,0,0,1013,389a110.08,110.08,0,0,0,.9-14.92,103.8,103.8,0,0,0-.9-14.63,23.43,23.43,0,0,0-3.74-10.29,13.76,13.76,0,0,0-7.93-5.43q-5.1-1.37-13.48,0L972,346.24Z"/><path class="cls-1" d="M1173,347.56l-30.54,4.85v-7.15q0-10.89-4.94-18t-16.62-5.29a22.32,22.32,0,0,0-10.33,4.12,22.72,22.72,0,0,0-6.28,7.38,31.47,31.47,0,0,0-3.15,9.52,64.47,64.47,0,0,0-.9,10.87q0,6.53.45,11a17.68,17.68,0,0,0,2.25,7.42,13.85,13.85,0,0,0,5.24,4.92,39.07,39.07,0,0,0,9.43,3.48l23.35,5.93q10.18,2.43,16.47,6.87a30.68,30.68,0,0,1,9.73,11.21,49.23,49.23,0,0,1,4.64,16.06,169.2,169.2,0,0,1,1.2,21.42,123.86,123.86,0,0,1-2.7,26.4,65.83,65.83,0,0,1-8.83,21.93,53.77,53.77,0,0,1-16.32,16.12q-10.17,6.6-24.85,8.93a50.05,50.05,0,0,1-20.66-.76,40.76,40.76,0,0,1-16.46-8.43,42,42,0,0,1-10.93-14.9,48.87,48.87,0,0,1-4-20.2V459.38l30.54-4.85v10a23.18,23.18,0,0,0,4.94,14.92q4.93,6.23,16.61,4.36,7.79-1.23,12.13-4.26a19.86,19.86,0,0,0,6.59-7.57,31.31,31.31,0,0,0,2.84-10.88q.6-6.3.6-13.78a136.14,136.14,0,0,0-.6-14.21,20.62,20.62,0,0,0-2.54-8.61,12.64,12.64,0,0,0-5.39-4.75,60.41,60.41,0,0,0-9.14-3.21l-21.85-5.86q-19.77-5.26-26.5-18T1069.67,359a88.76,88.76,0,0,1,3.29-24.16,67.1,67.1,0,0,1,9.73-20.83,58.21,58.21,0,0,1,39.37-24,46.3,46.3,0,0,1,20.81,1.05A42,42,0,0,1,1159,300a41.38,41.38,0,0,1,10.33,14.38A43.93,43.93,0,0,1,1173,332Z"/><path class="cls-3" d="M240.81,761.11l-11.94-31,8.33-1.32,9.66,25.12q6.67-.7,9.77-5.91t3.1-15.15a32.92,32.92,0,0,0-.94-9,6.22,6.22,0,0,0-3.14-4.17q-2.19-1-6.2-.39l-3,.47v-7.29l4.09-.64q9-1.44,13.23,3.36t4.2,16.26q0,13.51-5.22,20.82a22.89,22.89,0,0,1-21.95,8.82Z"/><path class="cls-3" d="M291.54,723.11a20.39,20.39,0,0,0-.71-6.07,4.78,4.78,0,0,0-2.71-3,10.61,10.61,0,0,0-5.77-.28,29,29,0,0,0-5.46,1.48,30.65,30.65,0,0,0-5.3,2.53v-7.46a32.45,32.45,0,0,1,5.81-2.83,33.61,33.61,0,0,1,6.6-1.81q8.47-1.33,12.29,2.23t3.81,12.63V752l-8.56,1.36Z"/><path class="cls-3" d="M313.09,746.21q-3.81-4-3.81-12.24V702.52l8.56-1.36v31c0,3.55.7,6,2.08,7.4s3.6,1.83,6.64,1.35a16.35,16.35,0,0,0,6.52-2.64,20.78,20.78,0,0,0,5.26-5V697.9l8.48-1.35v48L339,745.78l-.39-5.19a24.67,24.67,0,0,1-14.92,8.51Q316.9,750.18,313.09,746.21Z"/><path class="cls-3" d="M356,712.69q0-8.88,4.75-14.44t14.48-7.1q9.74-1.54,14.41,2.51t4.68,12.94V737l-8.56,1.36V707.07q0-9.77-10.53-8.1-5.34.85-8,3.67c-1.78,1.88-2.66,4.48-2.66,7.8v9.86a13.93,13.93,0,0,1,8.24-4.5l5.1-.81.32,7.68-5.66.9a13.31,13.31,0,0,0-8,4.29v13.86L356,743.08Z"/><path class="cls-3" d="M361.19,680.23l15.23-2.42v-7.37l6.2-1v7.38l4.72-.75V668.7l6.2-1v14.13l-32.75,5.2Z"/><path class="cls-3" d="M406.54,731.37q-3.81-4-3.81-12.24V687.67l8.56-1.36v31q0,5.32,2.08,7.4c1.38,1.38,3.6,1.83,6.63,1.34a16.12,16.12,0,0,0,6.52-2.63,20.61,20.61,0,0,0,5.26-5V683.06l8.48-1.35v48l-7.77,1.23-.39-5.18a24.63,24.63,0,0,1-14.92,8.5Q410.34,735.35,406.54,731.37Z"/><path class="cls-3" d="M452.08,725.16q-4-2.92-4-10.48a16.44,16.44,0,0,1,4.2-11.64q4.2-4.54,12.29-5.82l12.95-2.06v-3c0-3.5-.8-5.81-2.39-6.95s-4.47-1.38-8.6-.73A45.15,45.15,0,0,0,452.75,689v-7.46a52.24,52.24,0,0,1,7.3-3.07,46.6,46.6,0,0,1,8-2,29.09,29.09,0,0,1,7.3-.27l14.22-2.26-.47,7.63-4.95.78a12.18,12.18,0,0,1,1.45,4,29.38,29.38,0,0,1,.43,5.4v30.75l-8.48,1.34V702.62l-12.48,2a12.35,12.35,0,0,0-6.64,2.74q-2.16,2-2.16,6,0,3.82,2,5.06t6.59.51a18.63,18.63,0,0,0,5.34-1.56v7.38a26.71,26.71,0,0,1-7.62,2.27Q456.05,728.09,452.08,725.16Z"/><path class="cls-3" d="M470.26,746a5.73,5.73,0,0,1-2.51-5v-4.53l-4.24.68.31-6.1,10.05-1.59v9a2.41,2.41,0,0,0,.83,2.05,3,3,0,0,0,2.31.38,4,4,0,0,0,2.4-1.13,3.25,3.25,0,0,0,.82-2.31v-9l6.21-1V737a9.58,9.58,0,0,1-2.48,6.48,11.15,11.15,0,0,1-6.95,3.54Q472.78,747.73,470.26,746Z"/><path class="cls-3" d="M477.17,653.9l8.56-1.36v14.58l-8.56,1.35Z"/><path class="cls-3" d="M495.07,711.75V673l8.48-1.35V708a4.06,4.06,0,0,0,.83,2.89,2.83,2.83,0,0,0,2.63.56l3.61-.57v7.64l-7.3,1.16Q495.07,721,495.07,711.75Z"/><path class="cls-3" d="M518.24,669.33,526.8,668v15.1l12.25-1.94c3-.48,5.09-1.52,6.32-3.14s1.84-4,1.84-7v-6.22l8.48-1.34v6q0,10.13-6.36,13.72a6.48,6.48,0,0,1,4.68,3.52,16.91,16.91,0,0,1,1.29,7.17v17.69l-8.48,1.34V696.24q0-5.15-1.73-6.79t-6.36-.9l-11.93,1.9V716l-8.56,1.36Z"/><path class="cls-3" d="M568.34,706.6q-5.26-2.8-5.26-10.54a14.62,14.62,0,0,1,1.53-6.68,13.93,13.93,0,0,1,4.35-5.09,6.77,6.77,0,0,1-4.12-3,11.09,11.09,0,0,1-1.53-6.11q0-6.66,3.61-10.84a15.53,15.53,0,0,1,9.66-5.13,18,18,0,0,1,6.91.06v7.37a17.74,17.74,0,0,0-5.34.14q-6.6,1.05-6.59,7.09,0,6.31,7.38,5.14l4.47-.71.4,7.13-5,.8q-7.46,1.18-7.46,8.56,0,3.64,2.67,5t8.25.52q5.57-.88,8.32-3.86a11.51,11.51,0,0,0,2.75-8.12V657.4l8.48-1.34v29.77q0,9.67-4.79,15.15t-14.37,7Q573.6,709.41,568.34,706.6Z"/><path class="cls-3" d="M583,643.57l-6.21,1V637.9l12.1-1.93v8.09l17-2.69-.31,6.8L583,651.75Z"/><path class="cls-3" d="M626.21,670a20.27,20.27,0,0,0-.71-6.06,4.78,4.78,0,0,0-2.71-3,10.61,10.61,0,0,0-5.77-.28,28.31,28.31,0,0,0-5.46,1.49,29.94,29.94,0,0,0-5.3,2.53v-7.47a32.45,32.45,0,0,1,5.81-2.83,32.88,32.88,0,0,1,6.6-1.8q8.48-1.35,12.29,2.22t3.81,12.64V698.8l-8.56,1.36Z"/><path class="cls-3" d="M670,691.43v-7.65a22.52,22.52,0,0,0,10.68.88,20.09,20.09,0,0,0,8.52-3,12.08,12.08,0,0,0,4.48-6.13,31.72,31.72,0,0,0,1.37-10.26q0-9.24-3.33-12.62t-11.11-2.15A27.07,27.07,0,0,0,670,654.73V647a32.54,32.54,0,0,1,12.49-4.64q10.44-1.67,15.63,3.82t5.18,17.75q0,12.27-5,19.37t-15.54,8.78A26.81,26.81,0,0,1,670,691.43Z"/><path class="cls-3" d="M668.14,631.48l32.35-5.14v6.75l-32.74,5.2Z"/><path class="cls-3" d="M709.68,656.51q0-8.88,4.75-14.44t14.49-7.1a29.81,29.81,0,0,1,7.38-.28l15.63-2.48-.4,7.61-5.89.94a10.93,10.93,0,0,1,1.85,4.15,26.07,26.07,0,0,1,.51,5.52v30.39l-8.56,1.36V650.9q0-9.78-10.52-8.11c-3.56.57-6.23,1.79-8,3.68s-2.67,4.48-2.67,7.8v9.86a13.94,13.94,0,0,1,8.24-4.51l5.11-.81.31,7.68-5.65.9a13.42,13.42,0,0,0-8,4.29v13.87l-8.56,1.36Z"/><path class="cls-3" d="M756.64,677.67V670a22.78,22.78,0,0,0,10.68.88,20.47,20.47,0,0,0,8.52-3,12.13,12.13,0,0,0,4.47-6.14,31.7,31.7,0,0,0,1.38-10.26q0-9.24-3.34-12.62t-11.11-2.14a26.85,26.85,0,0,0-10.6,4.26v-7.73a32.34,32.34,0,0,1,12.48-4.65q10.44-1.67,15.63,3.83t5.18,17.75q0,12.26-5,19.36t-15.55,8.78A26.76,26.76,0,0,1,756.64,677.67Z"/><path class="cls-3" d="M795.51,632.31l7.3-1.16v4.35l11.54-1.83-.31,7.24-18.53,3Zm0,24.17,7.3-1.16v4.44l11.54-1.83-.31,7.16L795.51,668Z"/><path class="cls-3" d="M863.27,663.09a11.52,11.52,0,0,1-3.14-.35l-6.28-17.93-5.42.86.39-7.35,10.45-1.66,6.52,18.7a12.23,12.23,0,0,0,9-5.42q3.38-4.8,3.37-14.23c0-4.2-.48-7.43-1.45-9.67a7.4,7.4,0,0,0-4.75-4.4q-3.3-1-9.11-.11A42.48,42.48,0,0,0,849.37,626v-7.46a51.18,51.18,0,0,1,15.71-5.16q11-1.76,16.14,3.61t5.14,17.44a35.75,35.75,0,0,1-2.63,14.15,25.25,25.25,0,0,1-7.07,9.79,20.24,20.24,0,0,1-9.77,4.48A22.51,22.51,0,0,1,863.27,663.09Z"/><path class="cls-3" d="M876.62,671.76l-5,.79.4-6.37,11.85-1.89v17.33l-7.3,1.16Z"/><path class="cls-3" d="M890.91,610.13l8.41-1.33,6.36,33.29L913.29,617v-6.84l6.05-1,8.48,29.4,4.87-25.83a18.71,18.71,0,0,0,.31-3.34q0-2.4-1-3.21a4.06,4.06,0,0,0-3.22-.47l-3.14.5,1-7.36,3.46-.55a8,8,0,0,0,4.43-1.9,8.31,8.31,0,0,0,2-4.54l.62-3.3,7.62-1.21-.78,4.48a14.63,14.63,0,0,1-2.12,5.89,8.81,8.81,0,0,1-4,3.17q2.91,1.4,2.91,6a19.07,19.07,0,0,1-.4,4l-7.77,40.61-7.77,1.23L917,626.25l-8.48,29.07-7.77,1.24Z"/><path class="cls-3" d="M965.35,616.08a20.32,20.32,0,0,0-.7-6.06,4.8,4.8,0,0,0-2.71-3,10.62,10.62,0,0,0-5.77-.28,28.11,28.11,0,0,0-5.46,1.49,29.94,29.94,0,0,0-5.3,2.53v-7.47a35.62,35.62,0,0,1,12.41-4.63q8.48-1.35,12.28,2.22t3.81,12.64v31.46l-8.56,1.35Z"/><path class="cls-3" d="M1008.23,614.78a21.59,21.59,0,0,1-5,3.19,21.87,21.87,0,0,1-5.89,1.82q-7,1.11-11.15-2.27t-4.16-10.58a32.89,32.89,0,0,1,2.2-11.64l8.4-1.33a29.22,29.22,0,0,0-2.35,11.21q0,8.18,8.08,6.89a17.2,17.2,0,0,0,9.82-4.75V591.5l8.56-1.36v48l-8.56,1.36Z"/><path class="cls-3" d="M1045.33,621.36l13.72-29.07a11.44,11.44,0,0,0,1.19-3.71q.15-1.53.15-3.78c0-.67,0-1.38-.07-2.12a6.06,6.06,0,0,0-.41-1.91,2.7,2.7,0,0,0-1.08-1.26,3.18,3.18,0,0,0-2.17-.24,4.35,4.35,0,0,0-2.72,1.44,4.58,4.58,0,0,0-1,3.1v4.5l-7.61,1.21v-4.34a13.3,13.3,0,0,1,.89-4.79,15.26,15.26,0,0,1,2.43-4.18,14.42,14.42,0,0,1,3.61-3.17,11.91,11.91,0,0,1,4.48-1.68,10.12,10.12,0,0,1,5.11.31,7.9,7.9,0,0,1,3.5,2.5,11.09,11.09,0,0,1,2,4.1,20.18,20.18,0,0,1,.63,5.17c0,1.34,0,2.47-.07,3.38a22.19,22.19,0,0,1-.3,2.64,13.3,13.3,0,0,1-.75,2.6c-.35.88-.82,2-1.42,3.24l-11.18,24.17,13.72-2.18v7.9l-22.67,3.6Z"/><path class="cls-3" d="M1075.38,580.25a13.63,13.63,0,0,1,.93-5.11,14.73,14.73,0,0,1,2.5-4.11,13.45,13.45,0,0,1,3.62-2.94,12.83,12.83,0,0,1,4.29-1.49,10.81,10.81,0,0,1,4.29.13,8.64,8.64,0,0,1,3.61,1.79,9.14,9.14,0,0,1,2.5,3.32,11.43,11.43,0,0,1,.93,4.81V609a13.63,13.63,0,0,1-.93,5.11,14.28,14.28,0,0,1-2.5,4.11,13.4,13.4,0,0,1-3.61,2.94,13.08,13.08,0,0,1-4.29,1.5,11,11,0,0,1-4.29-.14,8.78,8.78,0,0,1-3.62-1.78,9.49,9.49,0,0,1-2.5-3.33,11.4,11.4,0,0,1-.93-4.81Zm7.61,31.17a3.46,3.46,0,0,0,1,2.67,3.07,3.07,0,0,0,2.69.69,4.16,4.16,0,0,0,2.68-1.55,4.59,4.59,0,0,0,1-3V577.86a3.44,3.44,0,0,0-1-2.67,3,3,0,0,0-2.68-.69,4.18,4.18,0,0,0-2.69,1.55,4.65,4.65,0,0,0-1,3Z"/><path class="cls-3" d="M1105.43,611.81l13.73-29.06a11.65,11.65,0,0,0,1.19-3.72q.15-1.53.15-3.78c0-.67,0-1.38-.07-2.12a6.12,6.12,0,0,0-.42-1.91,2.65,2.65,0,0,0-1.08-1.26,3.14,3.14,0,0,0-2.16-.24,4.44,4.44,0,0,0-2.72,1.44,4.62,4.62,0,0,0-1,3.11v4.49l-7.61,1.21v-4.34a13.09,13.09,0,0,1,.9-4.79,15.38,15.38,0,0,1,2.42-4.18,14.67,14.67,0,0,1,3.62-3.17,11.79,11.79,0,0,1,4.48-1.68,10.08,10.08,0,0,1,5.1.31,8,8,0,0,1,3.51,2.51,10.88,10.88,0,0,1,2,4.09,20.17,20.17,0,0,1,.64,5.17c0,1.34,0,2.47-.08,3.38a22,22,0,0,1-.3,2.64,13.26,13.26,0,0,1-.74,2.6c-.35.88-.82,2-1.42,3.25l-11.19,24.16,13.73-2.18v7.91l-22.68,3.6Z"/><path class="cls-3" d="M1135.49,570.7a13.63,13.63,0,0,1,.93-5.11,14.5,14.5,0,0,1,2.5-4.11,13.29,13.29,0,0,1,3.62-2.94,12.9,12.9,0,0,1,4.29-1.49,11,11,0,0,1,4.28.13,8.74,8.74,0,0,1,3.62,1.79,9.34,9.34,0,0,1,2.5,3.32,11.43,11.43,0,0,1,.93,4.81v32.38a13.59,13.59,0,0,1-.93,5.11,14.42,14.42,0,0,1-2.5,4.12,13.26,13.26,0,0,1-3.62,2.93,13,13,0,0,1-4.28,1.5,11,11,0,0,1-4.29-.13,8.86,8.86,0,0,1-3.62-1.79,9.42,9.42,0,0,1-2.5-3.32,11.43,11.43,0,0,1-.93-4.81Zm7.61,31.18a3.42,3.42,0,0,0,1,2.66,3.07,3.07,0,0,0,2.69.7,4.22,4.22,0,0,0,2.68-1.55,4.6,4.6,0,0,0,1-3V568.31a3.41,3.41,0,0,0-1-2.66,3.06,3.06,0,0,0-2.68-.7,4.18,4.18,0,0,0-2.69,1.55,4.6,4.6,0,0,0-1,3Z"/><path class="cls-4" d="M262.61,364.28l-11.19,1.53-9.09-56.75-.23,0-9,59.21-11.19,1.53-12.36-87.67,12.59-1.73,6,55.92.23,0,9.33-58,9.09-1.24,9.67,56.79.24,0,5.71-58.9L275,273.22Z"/><path class="cls-4" d="M289.31,271.26l35.43-4.85v12l-23.54,3.22v26.24l20.51-2.81v12.05L301.2,320V346.2L324.74,343v12.8l-35.43,4.85Z"/><path class="cls-4" d="M381,258.71l9.91-1.35,18.53,86.83-11.89,1.63-3.49-18.73-16.21,2.22L374.4,349l-11.89,1.62Zm5,25.05-.23,0L380,317l11.89-1.63Z"/><path class="cls-4" d="M422.19,253.09l19.12-2.62q21-2.86,21,23.36A38,38,0,0,1,460,287.51a22.41,22.41,0,0,1-8,10.07l12.82,39-12.59,1.72L441.19,301.7l-7.11,1v38.16l-11.89,1.62Zm11.89,38.28,6.76-.92a12.35,12.35,0,0,0,5-1.63,8.14,8.14,0,0,0,2.86-3.09,13.44,13.44,0,0,0,1.34-4.51,46.47,46.47,0,0,0,.35-6,44.36,44.36,0,0,0-.35-5.92,9.9,9.9,0,0,0-1.46-4.19,5.59,5.59,0,0,0-3.09-2.28,12.76,12.76,0,0,0-5.24-.16l-6.18.85Z"/><path class="cls-4" d="M478.72,245.35l35.44-4.84v12l-23.55,3.23V282l20.52-2.81v12.05l-20.52,2.81v26.23l23.55-3.22v12.8l-35.44,4.85Z"/></g></g></svg>